<svg width="18" height="33" viewBox="0 0 18 33" fill="none" xmlns="http://www.w3.org/2000/svg">
<path d="M17.5607 3.06066C18.1464 2.47487 18.1464 1.52513 17.5607 0.93934C16.9749 0.353553 16.0251 0.353553 15.4393 0.93934L17.5607 3.06066ZM2 16.5L0.93934 15.4393C0.353553 16.0251 0.353553 16.9749 0.93934 17.5607L2 16.5ZM15.4393 32.0607C16.0251 32.6464 16.9749 32.6464 17.5607 32.0607C18.1464 31.4749 18.1464 30.5251 17.5607 29.9393L15.4393 32.0607ZM15.4393 0.93934L0.93934 15.4393L3.06066 17.5607L17.5607 3.06066L15.4393 0.93934ZM0.93934 17.5607L15.4393 32.0607L17.5607 29.9393L3.06066 15.4393L0.93934 17.5607Z" fill="#7CABFF"/>
</svg>
