<svg width="18" height="33" viewBox="0 0 18 33" fill="none" xmlns="http://www.w3.org/2000/svg">
<path d="M0.93934 29.9393C0.353554 30.5251 0.353554 31.4749 0.93934 32.0607C1.52513 32.6464 2.47487 32.6464 3.06066 32.0607L0.93934 29.9393ZM16.5 16.5L17.5607 17.5607C18.1464 16.9749 18.1464 16.0251 17.5607 15.4393L16.5 16.5ZM3.06066 0.939339C2.47488 0.353553 1.52513 0.353552 0.939342 0.939339C0.353556 1.52512 0.353556 2.47487 0.939342 3.06066L3.06066 0.939339ZM3.06066 32.0607L17.5607 17.5607L15.4393 15.4393L0.93934 29.9393L3.06066 32.0607ZM17.5607 15.4393L3.06066 0.939339L0.939342 3.06066L15.4393 17.5607L17.5607 15.4393Z" fill="#7CABFF"/>
</svg>
