<svg width="28" height="28" viewBox="0 0 28 28" fill="none" xmlns="http://www.w3.org/2000/svg">
<path d="M5 19.2105C5 20.2295 5.43875 21.1442 6.125 21.7811V23.8421C6.125 24.4789 6.63125 25 7.25 25H8.375C8.99375 25 9.5 24.4789 9.5 23.8421V22.6842H18.5V23.8421C18.5 24.4789 19.0063 25 19.625 25H20.75C21.3687 25 21.875 24.4789 21.875 23.8421V21.7811C22.5613 21.1442 23 20.2295 23 19.2105V7.63158C23 3.57895 18.9725 3 14 3C9.0275 3 5 3.57895 5 7.63158V19.2105ZM8.9375 20.3684C8.00375 20.3684 7.25 19.5926 7.25 18.6316C7.25 17.6705 8.00375 16.8947 8.9375 16.8947C9.87125 16.8947 10.625 17.6705 10.625 18.6316C10.625 19.5926 9.87125 20.3684 8.9375 20.3684ZM19.0625 20.3684C18.1287 20.3684 17.375 19.5926 17.375 18.6316C17.375 17.6705 18.1287 16.8947 19.0625 16.8947C19.9963 16.8947 20.75 17.6705 20.75 18.6316C20.75 19.5926 19.9963 20.3684 19.0625 20.3684ZM20.75 13.4211H7.25V7.63158H20.75V13.4211Z" fill="#7CABFF"/>
</svg>
