<svg width="28" height="28" viewBox="0 0 28 28" fill="none" xmlns="http://www.w3.org/2000/svg">
<g clip-path="url(#clip0_315_829)">
<path d="M27.343 9.625H24.0689L23.1589 7.35C22.2237 5.01102 19.9919 3.5 17.4725 3.5H10.5271C8.00824 3.5 5.77589 5.01102 4.84019 7.35L3.93019 9.625H0.656598C0.229489 9.625 -0.0838707 10.0264 0.0200355 10.4404L0.34816 11.7529C0.420895 12.0449 0.683395 12.25 0.984723 12.25H2.0823C1.34785 12.8915 0.874801 13.8239 0.874801 14.875V17.5C0.874801 18.3816 1.21168 19.1773 1.7498 19.793V22.75C1.7498 23.7163 2.53347 24.5 3.4998 24.5H5.2498C6.21613 24.5 6.9998 23.7163 6.9998 22.75V21H20.9998V22.75C20.9998 23.7163 21.7835 24.5 22.7498 24.5H24.4998C25.4661 24.5 26.2498 23.7163 26.2498 22.75V19.793C26.7879 19.1778 27.1248 18.3821 27.1248 17.5V14.875C27.1248 13.8239 26.6517 12.8915 25.9178 12.25H27.0154C27.3167 12.25 27.5793 12.0449 27.652 11.7529L27.9801 10.4404C28.0835 10.0264 27.7701 9.625 27.343 9.625ZM8.08972 8.64992C8.48839 7.65352 9.45363 7 10.5271 7H17.4725C18.546 7 19.5112 7.65352 19.9099 8.64992L20.9998 11.375H6.9998L8.08972 8.64992ZM5.2498 17.4891C4.1998 17.4891 3.4998 16.7912 3.4998 15.7445C3.4998 14.6978 4.1998 14 5.2498 14C6.2998 14 7.8748 15.5701 7.8748 16.6168C7.8748 17.6635 6.2998 17.4891 5.2498 17.4891ZM22.7498 17.4891C21.6998 17.4891 20.1248 17.6635 20.1248 16.6168C20.1248 15.5701 21.6998 14 22.7498 14C23.7998 14 24.4998 14.6978 24.4998 15.7445C24.4998 16.7912 23.7998 17.4891 22.7498 17.4891Z" fill="#7CABFF"/>
</g>
<defs>
<clipPath id="clip0_315_829">
<rect width="28" height="28" fill="white"/>
</clipPath>
</defs>
</svg>
