<svg width="28" height="22" viewBox="0 0 28 22" fill="none" xmlns="http://www.w3.org/2000/svg">
<path d="M13.9336 0C6.23847 0 0 6.58906 0 14.7172C0 19.1244 1.81787 21.9988 1.81787 21.9988L26.0435 22C26.0435 22 27.8667 18.8587 27.8667 14.7169C27.8667 6.58906 21.6282 0 13.9336 0ZM25.0216 20.2071L2.88974 20.197C2.88974 20.197 1.71042 17.8603 1.71042 14.6707C1.71042 7.54677 7.20375 1.77122 13.9803 1.77122C20.7566 1.77122 26.2503 7.54646 26.2503 14.6707C26.2505 17.8964 25.0216 20.2071 25.0216 20.2071Z" fill="#7CABFF"/>
<path d="M17.8711 3.90815L17.6962 3.90784L13.9796 11.5276L10.1292 3.84277L4.8575 17.7257H3.49512V18.8407H10.9587V17.7257H9.47781L10.9587 13.3868L13.9796 18.8407L16.8822 13.3868L18.3628 17.7257H16.8822V18.8407H24.2862V17.7257H23.0035L17.8711 3.90815Z" fill="#7CABFF"/>
</svg>
