<svg width="21" height="21" viewBox="0 0 21 21" fill="none" xmlns="http://www.w3.org/2000/svg">
<path d="M6.66622 2.88944L3.77822 1.92572C3.46085 1.82001 3.12291 1.79124 2.79224 1.84176C2.46156 1.89229 2.14763 2.02067 1.87631 2.21633C1.60499 2.41198 1.38405 2.66931 1.23169 2.96711C1.07933 3.26491 0.99992 3.59465 1 3.92916V16.3668C0.999893 16.81 1.13931 17.2421 1.39849 17.6017C1.65767 17.9613 2.02345 18.2301 2.444 18.3702L6.66622 19.7773C7.09927 19.9215 7.5674 19.9215 8.00044 19.7773L12.9996 18.1116C13.4326 17.9674 13.9007 17.9674 14.3338 18.1116L17.2218 19.0743C17.5392 19.18 17.8773 19.2088 18.208 19.1582C18.5388 19.1076 18.8528 18.9791 19.1241 18.7834C19.3955 18.5876 19.6164 18.3301 19.7687 18.0322C19.921 17.7342 20.0002 17.4044 20 17.0698V4.63322C20.0002 4.19009 19.8609 3.75814 19.6019 3.39856C19.343 3.03899 18.9774 2.77002 18.5571 2.62977L14.3348 1.22272C13.9015 1.07825 13.4329 1.07825 12.9996 1.22272L7.99939 2.88838C7.56634 3.03262 7.09821 3.03262 6.66517 2.88838L6.66622 2.88944Z" stroke="#7CABFF" stroke-width="1.2" stroke-linecap="round" stroke-linejoin="round"/>
<path d="M13.6667 1V17.8889M7.33333 3.11111V20V3.11111Z" stroke="#7CABFF" stroke-width="1.2" stroke-linejoin="round"/>
</svg>
