<svg width="118" height="118" viewBox="0 0 118 118" fill="none" xmlns="http://www.w3.org/2000/svg">
<path fill-rule="evenodd" clip-rule="evenodd" d="M91.7778 32.7778C91.7778 50.8809 77.1032 65.5556 59 65.5556C40.8968 65.5556 26.2222 50.8809 26.2222 32.7778C26.2222 14.6746 40.8968 0 59 0C77.1032 0 91.7778 14.6746 91.7778 32.7778ZM85.2222 32.7778C85.2222 39.7323 82.4595 46.4021 77.5419 51.3197C72.6243 56.2373 65.9546 59 59 59C52.0454 59 45.3757 56.2373 40.4581 51.3197C35.5405 46.4021 32.7778 39.7323 32.7778 32.7778C32.7778 25.8232 35.5405 19.1535 40.4581 14.2359C45.3757 9.31824 52.0454 6.55556 59 6.55556C65.9546 6.55556 72.6243 9.31824 77.5419 14.2359C82.4595 19.1535 85.2222 25.8232 85.2222 32.7778V32.7778ZM39.0514 74.9136L39.0875 74.9857L39.3333 75.4676H77.8439C78.5946 74.045 80.2957 71.7768 81.9444 72.1537C85.6483 72.9961 89.3784 74.1696 92.9611 75.6151L93.0692 75.5626L93.1053 75.6347L93.1315 75.6839C106.62 81.1643 118 90.4536 118 100.202V118H0V100.202C0 87.8281 18.3424 76.1854 36.0556 72.1537C37.5011 71.8259 38.3598 73.5304 39.0514 74.9136V74.9136ZM87.5298 80.5776C86.1236 80.0854 84.7014 79.6404 83.2654 79.2436L81.8035 82.0231H35.3771L34.0201 79.4435L32.8401 79.7975C32.8171 80.0138 32.7974 80.2564 32.7876 80.5317C32.745 81.6626 32.8302 83.0032 33.0171 84.3667C33.2088 85.7889 33.5158 87.1931 33.9348 88.5656C36.2374 88.8383 38.3694 89.916 39.9545 91.6082C41.5396 93.3004 42.4758 95.4983 42.5976 97.8137C42.7195 100.129 42.0193 102.413 40.6206 104.262C39.2219 106.112 37.2148 107.407 34.9536 107.92C32.6924 108.433 30.3227 108.131 28.2629 107.066C26.2031 106.002 24.5858 104.243 23.6965 102.102C22.8073 99.9606 22.7033 97.574 23.4029 95.3634C24.1026 93.1528 25.5608 91.2606 27.5202 90.0209L27.494 89.9291C27.0572 88.3966 26.7319 86.8345 26.5205 85.255C26.3814 84.2459 26.2896 83.2309 26.2452 82.2132C22.1938 83.9439 18.4146 86.0351 15.2482 88.3427C8.94833 92.9447 6.55556 97.2451 6.55556 100.202V111.444H111.444V100.202C111.444 97.2418 109.052 92.9414 102.752 88.3459C100.005 86.3708 97.0792 84.6567 94.0132 83.2261C93.8799 85.0025 93.6081 86.7658 93.2003 88.5H95.0556C95.6641 88.5003 96.2606 88.6701 96.7781 88.9902C97.2957 89.3103 97.7139 89.7682 97.9859 90.3126L101.264 96.8682C101.493 97.3238 101.611 97.8253 101.611 98.3333V104.889C101.611 105.758 101.266 106.592 100.651 107.207C100.036 107.821 99.2027 108.167 98.3333 108.167H91.7778V101.611H95.0556V99.1069L93.0299 95.0556H83.9701L81.9444 99.1069V101.611H85.2222V108.167H78.6667C77.7973 108.167 76.9636 107.821 76.3489 107.207C75.7342 106.592 75.3889 105.758 75.3889 104.889V98.3333C75.3889 97.8253 75.5069 97.3238 75.7363 96.8682L79.0141 90.3126C79.2861 89.7682 79.7043 89.3103 80.2219 88.9902C80.7394 88.6701 81.3359 88.5003 81.9444 88.5H86.4088C86.4481 88.3689 86.4907 88.2378 86.53 88.0936C86.8382 87.0414 87.1135 85.7336 87.3003 84.37C87.4839 83.0196 87.5691 81.6986 87.5298 80.5776V80.5776ZM36.0556 98.3333C36.0556 100.215 34.5412 101.66 32.7778 101.66C31.0143 101.66 29.5 100.218 29.5 98.3333C29.5 96.4519 31.0143 95.0064 32.7778 95.0064C34.5412 95.0064 36.0556 96.4486 36.0556 98.3333Z" fill="#959595"/>
</svg>
