<svg width="21" height="21" viewBox="0 0 21 21" fill="none" xmlns="http://www.w3.org/2000/svg">
<path d="M9.12648 5.02871L5.91264 1.31919C5.54215 0.891713 4.8629 0.893613 4.43255 1.32489L1.78967 3.97238C1.00307 4.75988 0.777922 5.92926 1.23297 6.86686C3.95149 12.4952 8.49097 17.0408 14.1158 19.7671C15.0525 20.2221 16.221 19.997 17.0076 19.2095L19.6752 16.5373C20.1075 16.1051 20.1084 15.422 19.6771 15.0516L15.9531 11.855C15.5636 11.5206 14.9585 11.5643 14.568 11.9557L13.2723 13.2533C13.2059 13.3228 13.1186 13.3687 13.0237 13.3838C12.9288 13.3989 12.8316 13.3824 12.7469 13.3369C10.6288 12.1173 8.87187 10.3581 7.65493 8.23857C7.60936 8.15379 7.59286 8.0564 7.60796 7.96134C7.62306 7.86628 7.66893 7.77879 7.73853 7.7123L9.03053 6.41943C9.42193 6.02616 9.46468 5.41819 9.12648 5.02776V5.02871Z" stroke="#7CABFF" stroke-width="1.2" stroke-linecap="round" stroke-linejoin="round"/>
</svg>
