<svg width="58" height="58" viewBox="0 0 58 58" fill="none" xmlns="http://www.w3.org/2000/svg">
<path d="M51.5556 9.66669H6.44445C5.58986 9.66669 4.77028 10.0062 4.166 10.6105C3.56171 11.2147 3.22223 12.0343 3.22223 12.8889V45.1111C3.22223 45.9657 3.56171 46.7853 4.166 47.3896C4.77028 47.9939 5.58986 48.3334 6.44445 48.3334H30.6111L31.5294 47.2056L33.0278 45.3689L32.8828 45.1111H6.44445V12.8889H51.5556V26.68C52.7795 27.4724 53.8676 28.4571 54.7778 29.5961V12.8889C54.7778 12.0343 54.4383 11.2147 53.834 10.6105C53.2297 10.0062 52.4101 9.66669 51.5556 9.66669Z" fill="#A27000"/>
<path d="M11.2778 19.3333H38.6667V21.9111H11.2778V19.3333Z" fill="#A27000"/>
<path d="M11.2778 25.7778H29V28.3555H11.2778V25.7778Z" fill="#A27000"/>
<path d="M11.2778 37.0555H27.3889V39.6333H11.2778V37.0555Z" fill="#A27000"/>
<path d="M44.2411 27.7594C42.1794 27.743 40.1608 28.349 38.4489 29.4981C36.7371 30.6472 35.4117 32.286 34.646 34.2002C33.8802 36.1145 33.7098 38.2153 34.157 40.228C34.6041 42.2407 35.648 44.0716 37.1522 45.4816L34.0267 49.3L35.4767 55.1161L41.3733 47.9305C43.2399 48.4824 45.2262 48.4824 47.0928 47.9305L52.9895 55.1161L54.4395 49.3L51.3139 45.4816C52.8181 44.0716 53.862 42.2407 54.3092 40.228C54.7563 38.2153 54.5859 36.1145 53.8202 34.2002C53.0544 32.286 51.7291 30.6472 50.0172 29.4981C48.3054 28.349 46.2867 27.743 44.225 27.7594H44.2411ZM44.2411 44.9661C42.872 44.947 41.5391 44.5236 40.41 43.7491C39.2809 42.9746 38.4059 41.8836 37.8951 40.6132C37.3844 39.3428 37.2606 37.9498 37.5393 36.6092C37.8181 35.2687 38.4869 34.0404 39.4618 33.079C40.4366 32.1175 41.674 31.4657 43.0183 31.2055C44.3625 30.9453 45.7537 31.0884 47.0169 31.6166C48.2802 32.1449 49.359 33.0349 50.1178 34.1746C50.8766 35.3143 51.2815 36.653 51.2817 38.0222C51.2647 39.8753 50.5143 41.6463 49.1949 42.9476C47.8755 44.2489 46.0943 44.9747 44.2411 44.9661Z" fill="#A27000"/>
</svg>
