<svg width="50" height="50" viewBox="0 0 50 50" fill="none" xmlns="http://www.w3.org/2000/svg">
<path d="M6.35145 49.9341C9.39186 49.9341 11.8922 47.8286 12.5002 45.0656H18.7837C19.3917 47.8287 21.9594 49.9341 24.9325 49.9341C28.4461 49.9341 31.284 47.1709 31.284 43.7498C31.284 43.0261 31.1487 42.368 30.946 41.776L42.0944 30.9211C42.5676 31.0528 43.1077 31.1184 43.6483 31.1184C47.162 31.1184 49.9998 28.3552 49.9998 24.9341C49.9998 21.513 47.162 18.7498 43.6483 18.7498C40.1347 18.7498 37.2969 21.513 37.2969 24.9341C37.2969 26.8417 38.1754 28.4865 39.5266 29.6054L29.5267 39.4737C28.3782 38.3554 26.7564 37.6316 24.9997 37.6316C21.9593 37.6316 19.459 39.7371 18.851 42.5001H12.5674C11.9594 39.737 9.39176 37.6316 6.41868 37.6316C2.90505 37.6316 0.0672162 40.3948 0.0672162 43.8159C-0.000181109 47.171 2.8376 49.934 6.35123 49.934L6.35145 49.9341ZM43.6487 21.4474C45.6758 21.4474 47.2971 23.0265 47.2971 24.9998C47.2971 26.9736 45.6753 28.5522 43.6487 28.5522C41.6215 28.5522 40.0003 26.9731 40.0003 24.9998C40.0003 23.026 41.6895 21.4474 43.6487 21.4474ZM25.0001 40.2631C27.0272 40.2631 28.6485 41.8421 28.6485 43.8155C28.6485 45.7892 27.0267 47.3678 25.0001 47.3678C22.9729 47.3678 21.3517 45.7888 21.3517 43.8155C21.3517 41.8417 22.973 40.2631 25.0001 40.2631ZM6.35145 40.2631C8.37859 40.2631 9.99985 41.8421 9.99985 43.8155C9.99985 45.7892 8.37811 47.3678 6.35145 47.3678C4.3243 47.3678 2.70305 45.7888 2.70305 43.8155C2.70257 41.8417 4.32442 40.2631 6.35145 40.2631Z" fill="#A27000"/>
<path d="M6.35145 49.9341C9.39186 49.9341 11.8922 47.8286 12.5002 45.0656H18.7837C19.3917 47.8287 21.9594 49.9341 24.9325 49.9341C28.4461 49.9341 31.284 47.1709 31.284 43.7498C31.284 43.0261 31.1487 42.368 30.946 41.776L42.0944 30.9211C42.5676 31.0528 43.1077 31.1184 43.6483 31.1184C47.162 31.1184 49.9998 28.3552 49.9998 24.9341C49.9998 21.513 47.162 18.7498 43.6483 18.7498C40.1347 18.7498 37.2969 21.513 37.2969 24.9341C37.2969 26.8417 38.1754 28.4865 39.5266 29.6054L29.5267 39.4737C28.3782 38.3554 26.7564 37.6316 24.9997 37.6316C21.9593 37.6316 19.459 39.7371 18.851 42.5001H12.5674C11.9594 39.737 9.39176 37.6316 6.41868 37.6316C2.90505 37.6316 0.0672162 40.3948 0.0672162 43.8159C-0.000181109 47.171 2.8376 49.934 6.35123 49.934L6.35145 49.9341ZM43.6487 21.4474C45.6758 21.4474 47.2971 23.0265 47.2971 24.9998C47.2971 26.9736 45.6753 28.5522 43.6487 28.5522C41.6215 28.5522 40.0003 26.9731 40.0003 24.9998C40.0003 23.026 41.6895 21.4474 43.6487 21.4474ZM25.0001 40.2631C27.0272 40.2631 28.6485 41.8421 28.6485 43.8155C28.6485 45.7892 27.0267 47.3678 25.0001 47.3678C22.9729 47.3678 21.3517 45.7888 21.3517 43.8155C21.3517 41.8417 22.973 40.2631 25.0001 40.2631ZM6.35145 40.2631C8.37859 40.2631 9.99985 41.8421 9.99985 43.8155C9.99985 45.7892 8.37811 47.3678 6.35145 47.3678C4.3243 47.3678 2.70305 45.7888 2.70305 43.8155C2.70257 41.8417 4.32442 40.2631 6.35145 40.2631Z" stroke="#A27000"/>
<path d="M6.35146 12.3686C9.86508 12.3686 12.7029 9.60543 12.7029 6.18429C12.7029 2.76314 9.86508 0 6.35146 0C2.83783 0 0 2.82916 0 6.18429C0 9.60543 2.83783 12.3686 6.35146 12.3686ZM6.35146 2.69759C8.3786 2.69759 9.99985 4.27664 9.99985 6.24996C9.99985 8.22375 8.37812 9.80233 6.35146 9.80233C4.32431 9.80233 2.70306 8.22328 2.70306 6.24996C2.70259 4.27664 4.32443 2.69759 6.35146 2.69759Z" fill="#A27000"/>
<path d="M6.35146 12.3686C9.86508 12.3686 12.7029 9.60543 12.7029 6.18429C12.7029 2.76314 9.86508 0 6.35146 0C2.83783 0 0 2.82916 0 6.18429C0 9.60543 2.83783 12.3686 6.35146 12.3686ZM6.35146 2.69759C8.3786 2.69759 9.99985 4.27664 9.99985 6.24996C9.99985 8.22375 8.37812 9.80233 6.35146 9.80233C4.32431 9.80233 2.70306 8.22328 2.70306 6.24996C2.70259 4.27664 4.32443 2.69759 6.35146 2.69759Z" stroke="#A27000"/>
<path d="M6.35147 31.1842C9.8651 31.1842 12.7029 28.4211 12.7029 24.9999C12.7029 23.6843 12.2976 22.4342 11.5543 21.4476L21.7569 11.5135C22.7028 12.1055 23.8514 12.4345 25 12.4345C28.0404 12.4345 30.5408 10.3291 31.1488 7.56604H37.4323C38.0403 10.3292 40.608 12.4345 43.5811 12.4345C47.0947 12.4345 49.9325 9.67141 49.9325 6.25026C49.9325 2.82912 47.0947 0.065979 43.5811 0.065979C40.5406 0.065979 38.0403 2.17146 37.4323 4.93448H31.1488C30.5408 2.17134 27.9731 0.065979 25 0.065979C21.4864 0.065979 18.6486 2.82912 18.6486 6.25026C18.6486 7.50037 19.0539 8.75036 19.7297 9.73708L9.52719 19.6711C8.58127 19.1447 7.50004 18.8157 6.35152 18.8157C2.83789 18.8157 6.10352e-05 21.5788 6.10352e-05 25C6.10352e-05 28.4211 2.83789 31.1843 6.35152 31.1843L6.35147 31.1842ZM43.6487 2.69756C45.6758 2.69756 47.2971 4.27662 47.2971 6.24994C47.2971 8.22372 45.6753 9.80231 43.6487 9.80231C41.6215 9.80231 40.0003 8.22325 40.0003 6.24994C40.0677 4.27662 41.6895 2.69756 43.6487 2.69756ZM25.0001 2.69756C27.0272 2.69756 28.6485 4.27662 28.6485 6.24994C28.6485 8.22372 27.0267 9.80231 25.0001 9.80231C22.9729 9.80231 21.3517 8.22325 21.3517 6.24994C21.3517 4.27662 22.9731 2.69756 25.0001 2.69756ZM6.35147 21.4474C8.37861 21.4474 9.99987 23.0265 9.99987 24.9998C9.99987 26.9736 8.37813 28.5522 6.35147 28.5522C4.32433 28.5522 2.70307 26.9731 2.70307 24.9998C2.7026 23.026 4.32445 21.4474 6.35147 21.4474Z" fill="#A27000"/>
<path d="M6.35147 31.1842C9.8651 31.1842 12.7029 28.4211 12.7029 24.9999C12.7029 23.6843 12.2976 22.4342 11.5543 21.4476L21.7569 11.5135C22.7028 12.1055 23.8514 12.4345 25 12.4345C28.0404 12.4345 30.5408 10.3291 31.1488 7.56604H37.4323C38.0403 10.3292 40.608 12.4345 43.5811 12.4345C47.0947 12.4345 49.9325 9.67141 49.9325 6.25026C49.9325 2.82912 47.0947 0.065979 43.5811 0.065979C40.5406 0.065979 38.0403 2.17146 37.4323 4.93448H31.1488C30.5408 2.17134 27.9731 0.065979 25 0.065979C21.4864 0.065979 18.6486 2.82912 18.6486 6.25026C18.6486 7.50037 19.0539 8.75036 19.7297 9.73708L9.52719 19.6711C8.58127 19.1447 7.50004 18.8157 6.35152 18.8157C2.83789 18.8157 6.10352e-05 21.5788 6.10352e-05 25C6.10352e-05 28.4211 2.83789 31.1843 6.35152 31.1843L6.35147 31.1842ZM43.6487 2.69756C45.6758 2.69756 47.2971 4.27662 47.2971 6.24994C47.2971 8.22372 45.6753 9.80231 43.6487 9.80231C41.6215 9.80231 40.0003 8.22325 40.0003 6.24994C40.0677 4.27662 41.6895 2.69756 43.6487 2.69756ZM25.0001 2.69756C27.0272 2.69756 28.6485 4.27662 28.6485 6.24994C28.6485 8.22372 27.0267 9.80231 25.0001 9.80231C22.9729 9.80231 21.3517 8.22325 21.3517 6.24994C21.3517 4.27662 22.9731 2.69756 25.0001 2.69756ZM6.35147 21.4474C8.37861 21.4474 9.99987 23.0265 9.99987 24.9998C9.99987 26.9736 8.37813 28.5522 6.35147 28.5522C4.32433 28.5522 2.70307 26.9731 2.70307 24.9998C2.7026 23.026 4.32445 21.4474 6.35147 21.4474Z" stroke="#A27000"/>
<path d="M25 18.8159C21.4864 18.8159 18.6486 21.579 18.6486 25.0002C18.6486 28.4213 21.4864 31.1844 25 31.1844C28.5137 31.1844 31.3515 28.4213 31.3515 25.0002C31.3515 21.579 28.5137 18.8159 25 18.8159ZM25 28.5525C22.9729 28.5525 21.3516 26.9735 21.3516 25.0002C21.3516 23.0264 22.9734 21.4478 25 21.4478C27.0272 21.4478 28.6485 23.0268 28.6485 25.0002C28.6485 26.9739 27.0271 28.5525 25 28.5525Z" fill="#A27000"/>
<path d="M25 18.8159C21.4864 18.8159 18.6486 21.579 18.6486 25.0002C18.6486 28.4213 21.4864 31.1844 25 31.1844C28.5137 31.1844 31.3515 28.4213 31.3515 25.0002C31.3515 21.579 28.5137 18.8159 25 18.8159ZM25 28.5525C22.9729 28.5525 21.3516 26.9735 21.3516 25.0002C21.3516 23.0264 22.9734 21.4478 25 21.4478C27.0272 21.4478 28.6485 23.0268 28.6485 25.0002C28.6485 26.9739 27.0271 28.5525 25 28.5525Z" stroke="#A27000"/>
<path d="M50 43.8157C50 40.3945 47.1622 37.6314 43.6485 37.6314C40.1349 37.6314 37.2971 40.3945 37.2971 43.8157C37.2971 47.2368 40.1349 50 43.6485 50C47.1622 50 50 47.1708 50 43.8157ZM43.6485 47.3025C41.6214 47.3025 40.0002 45.7235 40.0002 43.7501C40.0002 41.7763 41.6219 40.1978 43.6485 40.1978C45.6757 40.1978 47.2969 41.7768 47.2969 43.7501C47.2974 45.7235 45.6756 47.3025 43.6485 47.3025Z" fill="#A27000"/>
<path d="M50 43.8157C50 40.3945 47.1622 37.6314 43.6485 37.6314C40.1349 37.6314 37.2971 40.3945 37.2971 43.8157C37.2971 47.2368 40.1349 50 43.6485 50C47.1622 50 50 47.1708 50 43.8157ZM43.6485 47.3025C41.6214 47.3025 40.0002 45.7235 40.0002 43.7501C40.0002 41.7763 41.6219 40.1978 43.6485 40.1978C45.6757 40.1978 47.2969 41.7768 47.2969 43.7501C47.2974 45.7235 45.6756 47.3025 43.6485 47.3025Z" stroke="#A27000"/>
</svg>
