<svg width="68" height="76" viewBox="0 0 68 76" fill="none" xmlns="http://www.w3.org/2000/svg">
<path d="M57.5676 12.6098L35.0027 4.01523C34.7305 3.91133 34.3652 3.85938 34 3.85938C33.6348 3.85938 33.2695 3.91133 32.9973 4.01523L10.4324 12.6098C9.88125 12.8176 9.42969 13.5301 9.42969 14.1832V49.9863C9.42969 50.6395 9.8082 51.5004 10.2664 51.9086L33.1566 71.8438C33.3891 72.0441 33.6879 72.148 33.9934 72.148C34.2988 72.148 34.6043 72.0441 34.8301 71.8438L57.7203 51.9086C58.1785 51.5078 58.557 50.6469 58.557 49.9863V14.1832C58.5703 13.5301 58.1188 12.825 57.5676 12.6098ZM53.7891 48.5613L34 65.7949L14.2109 48.5613V16.8254L34 9.28477L53.7891 16.8254V48.5613ZM26.8414 33.6434C26.6422 33.3391 26.3234 33.1535 25.9781 33.1535H22.3125C21.8809 33.1535 21.6285 33.7027 21.8809 34.0961L30.2746 47.0102C30.3739 47.162 30.5038 47.2855 30.6538 47.3706C30.8038 47.4558 30.9696 47.5002 31.1379 47.5002C31.3061 47.5002 31.472 47.4558 31.622 47.3706C31.772 47.2855 31.9019 47.162 32.0012 47.0102L46.1191 25.2863C46.3715 24.893 46.1191 24.3438 45.6875 24.3438H42.0219C41.6832 24.3438 41.3578 24.5293 41.1586 24.8336L31.1379 40.2563L26.8414 33.6434Z" fill="#A27000"/>
</svg>
