<svg width="51" height="52" viewBox="0 0 51 52" fill="none" xmlns="http://www.w3.org/2000/svg">
<path d="M18.7 24.2667C16.4457 24.2667 14.2837 23.3536 12.6896 21.7283C11.0955 20.1029 10.2 17.8985 10.2 15.6V8.66667C10.2 8.20697 10.3791 7.76609 10.6979 7.44102C11.0167 7.11596 11.4491 6.93334 11.9 6.93334H13.6C14.0509 6.93334 14.4833 6.75072 14.8021 6.42566C15.1209 6.1006 15.3 5.65972 15.3 5.20001C15.3 4.7403 15.1209 4.29942 14.8021 3.97436C14.4833 3.64929 14.0509 3.46667 13.6 3.46667H11.9C10.5474 3.46667 9.25019 4.01453 8.29376 4.98972C7.33732 5.96491 6.8 7.28755 6.8 8.66667V15.6C6.80219 17.5582 7.27052 19.4866 8.16476 21.2196C9.05901 22.9526 10.3525 24.4384 11.934 25.5493C13.4535 26.9152 14.6858 28.5809 15.5565 30.4459C16.4272 32.3108 16.9183 34.3362 17 36.4C17 39.618 18.2538 42.7041 20.4854 44.9796C22.7171 47.255 25.7439 48.5333 28.9 48.5333C32.0561 48.5333 35.0829 47.255 37.3146 44.9796C39.5463 42.7041 40.8 39.618 40.8 36.4V34.424C42.4025 34.0021 43.7991 32.9988 44.728 31.6021C45.6569 30.2054 46.0544 28.5113 45.8458 26.8372C45.6373 25.1631 44.8371 23.6241 43.5952 22.5085C42.3533 21.393 40.7551 20.7775 39.1 20.7775C37.4449 20.7775 35.8467 21.393 34.6048 22.5085C33.363 23.6241 32.5627 25.1631 32.3542 26.8372C32.1457 28.5113 32.5431 30.2054 33.472 31.6021C34.4009 32.9988 35.7975 34.0021 37.4 34.424V36.4C37.4 38.6985 36.5045 40.9029 34.9104 42.5283C33.3164 44.1536 31.1543 45.0667 28.9 45.0667C26.6457 45.0667 24.4837 44.1536 22.8896 42.5283C21.2955 40.9029 20.4 38.6985 20.4 36.4C20.4861 34.3337 20.9824 32.3067 21.859 30.4416C22.7356 28.5765 23.9743 26.9122 25.5 25.5493C27.0753 24.4345 28.3621 22.9471 29.2503 21.2143C30.1385 19.4816 30.6016 17.5551 30.6 15.6V8.66667C30.6 7.28755 30.0627 5.96491 29.1063 4.98972C28.1498 4.01453 26.8526 3.46667 25.5 3.46667H23.8C23.3491 3.46667 22.9167 3.64929 22.5979 3.97436C22.2791 4.29942 22.1 4.7403 22.1 5.20001C22.1 5.65972 22.2791 6.1006 22.5979 6.42566C22.9167 6.75072 23.3491 6.93334 23.8 6.93334H25.5C25.9509 6.93334 26.3833 7.11596 26.7021 7.44102C27.0209 7.76609 27.2 8.20697 27.2 8.66667V15.6C27.2 16.7381 26.9801 17.8651 26.553 18.9166C26.1258 19.9681 25.4997 20.9235 24.7104 21.7283C23.9211 22.533 22.9841 23.1714 21.9528 23.607C20.9215 24.0425 19.8162 24.2667 18.7 24.2667ZM39.1 31.2C38.1983 31.2 37.3335 30.8348 36.6958 30.1846C36.0582 29.5345 35.7 28.6528 35.7 27.7333C35.7 26.8139 36.0582 25.9322 36.6958 25.282C37.3335 24.6319 38.1983 24.2667 39.1 24.2667C40.0017 24.2667 40.8665 24.6319 41.5042 25.282C42.1418 25.9322 42.5 26.8139 42.5 27.7333C42.5 28.6528 42.1418 29.5345 41.5042 30.1846C40.8665 30.8348 40.0017 31.2 39.1 31.2Z" fill="#A27000"/>
</svg>
